<?xml version="1.0" encoding="UTF-8" standalone="no"?>
<!-- Generator: Adobe Illustrator 24.2.1, SVG Export Plug-In . SVG Version: 6.00 Build 0)  -->

<svg
   xmlns:dc="http://purl.org/dc/elements/1.1/"
   xmlns:cc="http://creativecommons.org/ns#"
   xmlns:rdf="http://www.w3.org/1999/02/22-rdf-syntax-ns#"
   xmlns:svg="http://www.w3.org/2000/svg"
   xmlns="http://www.w3.org/2000/svg"
   xmlns:sodipodi="http://sodipodi.sourceforge.net/DTD/sodipodi-0.dtd"
   xmlns:inkscape="http://www.inkscape.org/namespaces/inkscape"
   version="1.1"
   id="Ebene_1"
   x="0px"
   y="0px"
   viewBox="0 0 283.46 311.81"
   style="enable-background:new 0 0 283.46 311.81;"
   xml:space="preserve"
   sodipodi:docname="Orth_Aut_IconCross_transparent.svg"
   inkscape:version="0.92.3 (2405546, 2018-03-11)"><metadata
   id="metadata53"><rdf:RDF><cc:Work
       rdf:about=""><dc:format>image/svg+xml</dc:format><dc:type
         rdf:resource="http://purl.org/dc/dcmitype/StillImage" /><dc:title></dc:title></cc:Work></rdf:RDF></metadata><defs
   id="defs51" /><sodipodi:namedview
   pagecolor="#ffffff"
   bordercolor="#666666"
   borderopacity="1"
   objecttolerance="10"
   gridtolerance="10"
   guidetolerance="10"
   inkscape:pageopacity="0"
   inkscape:pageshadow="2"
   inkscape:window-width="1920"
   inkscape:window-height="1017"
   id="namedview49"
   showgrid="false"
   inkscape:zoom="0.75687118"
   inkscape:cx="-14.835619"
   inkscape:cy="155.905"
   inkscape:window-x="0"
   inkscape:window-y="30"
   inkscape:window-maximized="1"
   inkscape:current-layer="Ebene_1" />
<style
   type="text/css"
   id="style2">
	.st0{fill:#8ACDCE;}
</style>
<g
   id="g46"
   style="fill:#ffffff;fill-opacity:1"
   transform="translate(-1.0270813,-0.86359734)">
	<g
   id="g44"
   style="fill:#ffffff;fill-opacity:1">
		<g
   id="g8"
   style="fill:#ffffff;fill-opacity:1">
			<g
   id="g6"
   style="fill:#ffffff;fill-opacity:1">
				<path
   class="st0"
   d="m 207.6,108.49 c -4.08,0.23 -7.95,1.59 -11.9,2.5 -4.08,0.94 -8.36,0.99 -12.48,1.8 -9.19,1.8 -18.46,2.93 -27.73,4.15 -1.3,0.17 -2.38,0.91 -3.68,1.15 -0.98,0.19 -1.4,1.31 -1.23,2.56 1.44,10.55 2.66,21.13 4.29,31.65 0.88,5.67 1.82,11.3 2.42,17.02 0.53,5.06 1.58,10.14 2.29,15.22 0.15,1.09 0.32,2.16 0.21,3.34 -0.11,1.21 0.45,2.41 2.08,3.02 4.04,1.52 7.92,3.43 11.92,5.08 1.15,0.47 1.89,0.99 2.04,2.33 0.4,3.66 1.4,7.25 1.28,11.29 -3.72,-1.4 -7.18,-2.69 -10.63,-4 -0.82,-0.31 -1.61,-1.23 -2.51,-0.53 -1.11,0.86 -1.48,2.45 -1.07,3.5 1.35,3.51 1.13,7.22 1.86,10.8 0.89,4.35 1.56,8.81 2.01,13.15 0.6,5.73 1.54,11.42 2.03,17.16 0.1,1.14 -0.25,1.56 -1.32,2.12 -2.97,1.55 -6.19,0.38 -9.16,1.19 -2.64,0.72 -3.05,0.65 -3.54,-2.7 -1.93,-13.26 -3.75,-26.53 -5.57,-39.8 -0.47,-3.44 -1.19,-6.84 -0.88,-10.37 0.12,-1.33 -0.54,-2.55 -1.89,-3.09 -3.37,-1.36 -6.69,-2.94 -10.18,-3.88 -1.89,-0.51 -2.46,-1.37 -2.51,-2.98 -0.09,-3.18 -1.6,-6.07 -1.76,-9.22 -0.04,-0.73 -0.66,-1.63 0.1,-2.17 0.81,-0.58 1.61,0.24 2.41,0.47 2.44,0.69 4.51,2.22 6.96,2.99 2.41,0.76 2.74,-0.43 3.2,-2.24 0.63,-2.46 -0.01,-4.88 -0.61,-7.06 -1.19,-4.34 -1.37,-8.78 -2.08,-13.16 -0.83,-5.17 -1.67,-10.34 -2.43,-15.51 -0.5,-3.38 -0.84,-6.85 -1.09,-10.3 -0.13,-1.78 -0.15,-3.62 -1.04,-5.36 -0.56,-1.09 -0.62,-2.49 -0.42,-3.84 0.54,-3.74 -0.44,-4.73 -4,-4.26 -7.58,1.01 -15.18,1.91 -22.75,3.05 -9.34,1.4 -18.63,3.1 -28.01,4.26 -2.43,0.3 -4.84,0.29 -7.26,0.44 -1.31,0.08 -1.21,-0.7 -1.26,-1.44 -0.23,-3.21 -0.28,-6.46 -1.16,-9.56 -0.39,-1.4 0.87,-1.41 1.17,-1.42 4.7,-0.21 9.27,-1.15 13.9,-1.91 3.89,-0.64 8,-0.86 11.84,-1.49 6.55,-1.08 13.16,-1.74 19.7,-2.83 4.25,-0.71 8.53,-1.3 12.81,-1.67 2.48,-0.22 2.96,-1.3 2.65,-3.53 -1.63,-11.85 -3.17,-23.7 -4.75,-35.56 -0.32,-2.44 -0.64,-4.89 -0.97,-7.33 -0.39,-2.85 -1.95,-4.15 -4.49,-3.14 -2.35,0.93 -4.81,0.74 -7.12,1.43 -2.67,0.8 -3.52,-0.69 -3.86,-2.78 -0.52,-3.21 -0.84,-6.46 -1.33,-9.67 -0.17,-1.1 0.26,-1.34 1.22,-1.45 2.87,-0.33 5.71,-0.84 8.59,-1.1 3.22,-0.29 4.54,-1.8 4.12,-5.01 -0.44,-3.31 -0.88,-6.63 -1.32,-9.94 -0.22,-1.64 -0.41,-2.43 2.12,-2.56 2.25,-0.12 4.74,-0.56 7.09,-1.09 3.31,-0.76 3.67,-0.46 3.95,2.81 0.33,3.81 1.5,7.51 1.12,11.43 -0.12,1.27 0.81,2.58 2.73,2.27 3.21,-0.52 6.44,-0.91 9.67,-1.3 1.49,-0.18 2.79,-1.02 3.08,1.97 0.28,2.85 0.73,5.83 1.39,8.7 0.25,1.07 0.01,1.59 -1.21,1.69 -3.83,0.31 -7.44,2.04 -11.43,1.62 -1.18,-0.12 -1.7,1.2 -1.51,2.51 0.42,2.96 0.82,5.93 1.19,8.9 1.54,12.64 3.64,25.21 4.82,37.89 0.11,1.14 0.94,1.65 2.02,1.33 10.85,-3.16 22.17,-3.45 33.2,-5.5 7.23,-1.34 14.5,-2.37 21.78,-3.36 4.05,-0.55 4.75,-0.04 4.4,3.99 -0.15,1.69 -0.05,3.31 0.24,4.91 0.3,1.52 0.11,2.32 -1.76,2.42 z"
   id="path4"
   style="fill:#ffffff;fill-opacity:1"
   inkscape:connector-curvature="0" />
			</g>
		</g>
		<path
   class="st0"
   d="m 235.84,92.15 c -2.21,-0.63 -2.61,-2.6 -3.95,-3.79 -1.72,-1.54 -2.81,-3.78 -4.96,-4.78 -4.66,-2.16 -9.64,-3.17 -14.72,-3.71 -1.34,-0.14 -2.61,-0.24 -2.06,-2.19 0.13,-0.47 0.03,-1.06 -0.13,-1.54 -2.09,-6.36 -6.05,-11.15 -11.99,-14.29 -2.13,-1.12 -4.51,-1.26 -6.77,-1.74 -7.43,-1.59 -13.79,0.49 -18.86,6.27 -0.44,0.5 -0.93,1.02 -1.51,1.33 -2.62,1.41 -3.39,4.06 -4.3,6.53 -1.02,2.79 -1.02,5.77 -0.99,8.73 0.01,1.14 -0.12,2.16 -1.7,2.29 -1.46,0.12 -1.78,-0.61 -1.93,-1.8 -0.7,-5.44 -1.42,-10.87 -2.16,-16.3 -0.12,-0.85 -0.02,-1.18 0.95,-1.64 2.72,-1.29 5.87,-0.72 8.51,-2.55 2.94,-2.03 6.35,-3.15 8.81,-6.17 1.99,-2.44 2.25,-5.09 2.91,-7.79 0.88,-3.56 0.88,-7.04 -1.24,-10.24 -0.84,-1.26 -1.94,-2.31 -2.74,-3.63 -2.39,-3.94 -6.41,-6.21 -10.24,-8.16 -2.13,-1.09 -5.19,-1.62 -8.04,-1.24 -4.77,0.63 -4.97,0.47 -5.47,-4.2 -0.61,-5.56 -3.88,-9.61 -8.27,-12.19 -4.71,-2.78 -9.87,-4.79 -15.88,-3.53 -4.02,0.84 -7.94,1.94 -11.41,3.83 -4.88,2.66 -9.24,6.23 -9.67,12.51 -0.06,0.88 -0.59,1.42 -0.9,2.07 -0.82,1.74 -0.99,3.39 -0.33,5.2 0.3,0.82 0.27,1.32 -0.92,1.85 -4.11,1.85 -8.75,3.14 -11.5,7.02 -1.8,2.55 -4.71,4.19 -5.53,7.58 -1.17,4.82 -1.67,9.66 -1.03,14.54 0.43,3.24 3.44,5.04 5.1,7.61 0.83,1.29 2.1,1.56 3.38,1.86 1.75,0.41 3.67,0.76 5.15,1.52 2.54,1.32 4.87,2.21 7.77,1.58 1.42,-0.31 2.91,-0.04 3.16,2.02 0.6,4.87 1.18,9.76 2.43,14.53 0.32,1.23 0.42,2.17 -1.39,2.53 -0.91,0.18 -2.29,0.56 -2.8,1.79 1.51,1.21 3.39,0.15 5.16,0.94 -2.76,1.73 -5.58,1.17 -8.44,1.52 0.67,-0.81 2.2,-1.42 0.04,-2.2 -0.79,-0.28 -1.15,-1.71 -1.31,-2.82 -0.59,-4.12 -2.72,-7.51 -5.17,-10.75 -1.13,-1.5 -2.14,-3.05 -4.36,-2.93 -0.25,0.01 -0.56,-0.37 -0.77,-0.63 -2.35,-2.99 -5.97,-4.03 -9.22,-4.03 -7.02,-0.01 -13.63,1.71 -18.37,7.78 -1.24,1.59 -2.14,3.47 -3.44,4.83 -2,2.1 -2.35,4.49 -2.81,7.04 -0.38,2.1 0.14,4.1 0.26,6.14 0.21,3.71 -3.08,4.67 -5.53,5.87 -3.7,1.8 -5.93,5.02 -7.67,8.24 -1.95,3.61 -2.52,7.92 -1.17,12.1 1,3.09 0.72,6.64 3.3,9.18 1.57,1.54 2.13,4.11 4.73,4.63 0.28,0.06 0.58,0.41 0.72,0.7 1.07,2.36 3.23,2.45 5.33,2.47 0.71,0.01 1.34,0.13 1.98,0.32 3.03,0.9 5.43,1.84 6.67,5.63 1.33,4.08 2.96,8.86 8.38,9.97 0.39,0.08 0.61,0.77 0.99,1.1 0.59,0.51 1.2,1.27 1.87,1.34 3.01,0.35 5.82,1.53 8.95,1.53 3.46,0 6.88,1.02 10.36,-0.24 6.91,-2.5 13.65,-11.94 13.81,-19.65 0.04,-1.69 -0.36,-3.56 1.91,-4.05 1.78,-0.38 3.62,-0.54 5.44,-0.7 0.53,-0.05 0.53,0.56 0.61,0.98 1.25,6.77 2.42,13.55 3.79,20.29 0.38,1.89 -0.52,2.03 -1.87,2.08 -1.79,0.06 -3.83,-0.41 -5.31,0.31 -5.45,2.63 -10.38,6.04 -12.69,12.03 -0.59,1.53 -0.39,3.41 -1.12,4.84 -0.88,1.72 -0.56,3.31 0.07,4.7 0.87,1.92 1.3,4 2.82,5.78 1.01,1.18 2.38,2.09 3.17,3.53 2.44,4.44 6.21,7.62 10.61,9.89 1.31,0.68 2.47,2.11 4.09,1.92 2.81,-0.33 3.37,2.76 5.5,3.38 -1.03,2.6 0.91,4.76 1.07,7.18 0.3,4.46 0.38,8.95 1.19,13.36 0.29,1.59 1.15,3.18 1.04,4.72 -0.17,2.55 0.61,4.92 1.3,7.16 0.54,1.73 -0.02,2.01 -1.09,2.61 -4.28,2.37 -8.74,4.27 -11.74,8.68 -1.21,1.78 -1.7,3.79 -2.92,5.42 -3.63,4.87 -3,10.26 -1.75,15.56 0.73,3.08 3.83,4.97 5.1,7.9 0.03,0.07 0.14,0.12 0.22,0.14 3.97,0.86 6.38,4.66 10.66,5.31 2.05,0.31 4.16,1.36 6.38,1.58 0.39,0.04 0.85,-0.31 1.13,0.26 1.98,4.04 3.74,8.2 7.33,11.21 1.31,1.1 2.51,2.34 3.67,3.61 0.95,1.04 2.47,-0.2 3.1,0.6 3.28,4.16 8.22,2.47 12.23,3.03 3.01,0.42 7.01,0.4 10.01,-1.92 1.68,-1.3 4.28,-1.07 5.56,-2.35 2.67,-2.66 4.9,-6.03 5.92,-9.61 1.06,-3.7 0.34,-7.75 -0.23,-11.61 -0.24,-1.61 0.05,-2.5 1.85,-2.59 2.35,-0.11 4.73,0.09 6.99,-0.89 0.61,-0.27 1.74,-0.36 1.94,-0.49 1.85,-1.22 4.55,0.31 5.93,-1.68 1.03,-1.49 2.35,-2.74 3.22,-4.37 2.55,-4.78 2.06,-9.89 1.38,-14.86 -0.35,-2.54 -1.68,-5.11 -3.55,-7.02 -1.1,1.25 1.01,2.01 0.18,3.72 -1.37,-4.65 -5.06,-6.77 -8.07,-9.56 -0.82,-0.76 -1.52,-1.51 -2.57,-1.98 -3.46,-1.57 -7.03,-2.21 -10.82,-1.71 -2.7,0.36 -3.49,-0.31 -3.94,-2.97 -0.31,-1.82 0,-3.65 -0.63,-5.51 -0.93,-2.76 -0.42,-3.02 2.36,-2.3 4.21,1.1 8.28,0.47 12.07,-1.6 1.09,-0.59 1.83,-1.78 3.17,-2.04 0.09,-0.07 0.17,-0.14 0.26,-0.21 0.48,-0.73 0.59,-1.67 1.27,-2.28 0.05,-0.1 0.1,-0.2 0.15,-0.3 0.33,-3.01 -0.17,-6.26 2.5,-8.62 0.11,-0.1 0.28,-0.95 -0.37,-0.96 -1.74,-0.03 -1.26,-0.5 -0.34,-1.27 0.67,-0.56 0.99,-1.41 0.7,-2.25 -0.33,-0.96 -0.04,-2.13 -0.95,-2.9 -0.78,0.95 -0.01,1.93 -0.08,2.9 -0.02,0.33 0.25,0.75 -0.25,1 -1.84,-8.79 -3.06,-11.46 -6.08,-14.77 -5.44,-5.94 -12.71,-8.98 -19.57,-12.71 -1.1,-0.6 -2.77,-1.77 -2.55,-3.15 0.66,-4.03 -0.26,-7.87 -0.77,-11.77 -0.92,-7.08 -1.59,-14.21 -2.93,-21.21 -0.67,-3.47 -1.26,-6.95 -1.77,-10.45 -0.7,-4.8 -0.41,-5.08 4.33,-5.64 1.25,-0.15 1.51,0.18 2.06,1.37 1.41,3.03 2.27,6.62 5.92,8.03 0.38,0.15 0.68,0.19 0.94,0.66 2.33,4.21 6.13,6.4 10.69,7.3 3.46,0.69 6.99,0.81 10.5,0.29 5.09,-0.76 9.49,-2.63 11.96,-7.59 1.47,-2.95 2.94,-6.12 2.27,-9.32 -0.93,-4.48 0.08,-6.39 4.63,-7.26 4.06,-0.78 7.91,-2.26 10.16,-6.08 0.81,-1.38 2,-2.16 3.21,-3.01 0.28,-0.2 1.01,0.11 0.86,-0.54 -0.55,-2.43 0.31,-4.65 0.72,-6.96 0.19,-1.05 0.81,-2.34 0.57,-3.08 -0.78,-2.36 -0.46,-4.61 -0.26,-6.94 0.12,-1.55 0.01,-3.59 -1.56,-4.04 z M 174.26,67.99 c 3.04,-4 6,-6.1 11.48,-5.97 -4.1,0.96 -7.67,2.83 -10.6,5.85 -0.16,0.17 -0.55,0.11 -0.88,0.12 -0.02,0.02 -0.04,0.04 -0.05,0.07 L 174.13,68 c 0.04,-0.01 0.09,-0.01 0.13,-0.01 z m -0.24,-0.02 c -0.01,-0.03 -0.01,-0.05 -0.02,-0.08 0,0 0.08,0.06 0.08,0.06 -0.02,0.02 -0.04,0.02 -0.06,0.02 0.31,0.96 -0.45,1.45 -1.15,2.28 -0.39,-1.38 -0.2,-2.13 1.15,-2.28 z m -4.75,19.26 c 0.04,0.26 0.09,0.53 0.13,0.79 l -6.51,0.86 c 2.34,-1.99 3.45,-1.22 6.38,-1.65 z m -8.16,-59.94 -6.44,0.85 c 2.06,-1.36 4.28,-0.86 6.44,-0.85 z M 118.69,11.93 c 0.85,-0.73 0.7,-1.3 2.46,-1.11 -0.49,1.37 -1.52,1.14 -2.46,1.11 -0.02,0.02 -0.04,0.03 -0.06,0.05 0,0 -0.08,-0.06 -0.07,-0.05 0.05,0 0.09,0 0.13,0 z m -0.28,-0.01 c 0.01,-0.03 0.02,-0.06 0.03,-0.09 l 0.08,0.06 c -0.04,0 -0.08,0.02 -0.11,0.03 -0.46,1.82 -2.31,2 -3.47,2.99 0.75,-1.48 1.86,-2.54 3.47,-2.99 z M 106.6,34.35 c -3.25,1.03 -5.17,3.24 -7.67,4.61 l -5.48,6.68 C 92.2,42.08 99.43,34.45 106.6,34.35 Z M 86.55,75.5 c -6.48,1.16 -13.17,1.89 -17.24,8.6 -0.76,-4.95 8.98,-9.84 17.24,-8.6 z m -33.67,36.51 c 1.5,-1.47 2.38,-3.5 4.21,-4.65 1.17,-0.73 2.35,-1.45 3.52,-2.17 -1.33,2.33 -3.86,3.44 -5.39,5.65 -0.39,0.57 -0.93,1.13 -1.14,1.79 -0.22,0.69 -0.48,1.62 -1.18,1.34 -0.96,-0.38 -0.43,-1.56 -0.02,-1.96 z m 61.95,54.54 c -1.18,1.44 -2.02,2.45 -2.99,3.63 -0.02,-1.91 0.79,-2.96 2.99,-3.63 z m 23.27,79.34 c -2.23,0.97 -4.46,1.93 -7.39,3.2 2.33,-2.47 4.6,-3.34 7.39,-3.2 z M 232.81,109.7 c -0.37,2.07 -2.11,3.42 -3.26,4.95 -2.2,2.92 -5.09,5.12 -9.2,5.27 -1.84,0.07 -3.53,1.6 -5.55,1.7 -1.4,0.07 -0.8,1.11 -0.69,1.74 1.02,5.77 -0.18,11.03 -3.56,15.79 -3.34,4.69 -8.13,5.56 -13.46,5.3 -3.79,-0.19 -7.29,-1.03 -10.41,-3.3 -1.84,-1.33 -3.12,-3.18 -4.02,-5.09 -1.18,-2.51 -2.3,-5.16 -2.22,-8.07 0.05,-1.55 -0.69,-1.8 -2.1,-1.57 -3.34,0.54 -6.7,0.95 -10.06,1.36 -1.67,0.2 -2.31,0.97 -2.32,2.74 -0.03,4.97 0.64,9.87 1.54,14.71 1.2,6.47 2.15,12.98 3.05,19.49 0.34,2.48 -0.07,4.97 0.41,7.47 0.5,2.64 1.33,5.17 1.31,8 -0.01,2.17 2.43,3.42 4.52,4.17 4.5,1.61 8.42,4.31 12.63,6.48 1.6,0.82 2.59,2.41 3.61,3.88 0,0 0,0 -0.01,0 2.53,1.98 3.7,4.87 4.6,7.72 1.66,5.26 0.97,10.61 -0.16,15.92 -0.76,3.57 -3.94,4.54 -6.46,6.04 -2.8,1.67 -5.81,1.1 -8.69,-0.35 -2.04,-1.03 -3.13,-0.19 -3.1,2.1 0.06,4.91 0.49,9.74 1.85,14.52 0.47,1.66 1.42,2.16 2.68,2.12 1.79,-0.05 3.56,-0.27 5.38,-0.16 7.26,0.44 11.19,1.67 15.17,8.5 1.83,3.13 3.22,5.92 2.8,9.65 -0.43,3.78 -1.65,7.07 -4.37,9.68 -3.2,3.07 -6.86,5.32 -11.55,5.17 -1.31,-0.04 -2.34,1.22 -3.88,0.64 -0.5,-0.19 -1.46,0.8 -1.18,2.05 0.88,3.98 0.24,7.89 -0.4,11.87 -0.57,3.56 -2.89,5.88 -5.26,7.67 -2.08,1.57 -4.6,2.99 -7.43,3.68 -3.33,0.82 -6.46,1.03 -9.63,-0.31 -1.23,-0.52 -2.45,0.12 -3.77,-0.25 -5.76,-1.6 -8.14,-6.26 -10.41,-11.05 -0.39,-0.83 -0.7,-1.73 -0.88,-2.63 -0.87,-4.3 -0.89,-4.48 -5.05,-3.71 -4.89,0.91 -8.59,-1.56 -12.6,-3.61 -4.25,-2.17 -5.88,-5.97 -6.16,-10.09 -0.38,-5.47 0.81,-10.54 4.35,-15.36 2.67,-3.65 6.42,-4.57 9.71,-6.66 0.68,-0.43 1.34,0.42 2.19,0.09 2.52,-0.98 3.88,-3.18 3.07,-6.04 -1.24,-4.35 -1.89,-8.79 -2.22,-13.27 -0.3,-4.08 -1.89,-7.91 -2.15,-11.98 -0.17,-2.73 -0.42,-5.45 -0.54,-8.18 -0.08,-1.72 -0.69,-2.72 -2.45,-3.42 -5.63,-2.22 -11.36,-4.28 -16,-8.43 -5.44,-4.88 -8.68,-10.54 -8.4,-18.23 0.11,-3.13 1.17,-5.42 2.73,-7.75 0.43,-0.64 0.35,-1.29 0.54,-1.92 0.53,-1.74 1.5,-3.16 3.47,-3.25 3.14,-0.15 6.11,-1.46 9.29,-1.27 0.99,0.06 2.21,-0.8 2.6,0.99 0.1,0.45 0.78,0.22 1.12,-0.01 0.46,-0.31 0.29,-0.99 0.04,-1.12 -3.33,-1.85 -2,-4.91 -2.14,-7.58 -0.12,-0.55 -0.24,-1.11 -0.36,-1.66 0.23,0.53 0.33,1.08 0.36,1.66 0.45,2.01 0.99,4 1.74,5.94 0.14,-7.47 -0.98,-14.8 -2.12,-22.13 -0.08,-0.52 -0.14,-1.04 -0.21,-1.55 -0.68,-5.14 -0.68,-5.11 -6,-4.48 -3.1,0.37 -6.14,1.27 -9.29,1.23 -2.01,-0.02 -2.54,0.71 -2.22,2.79 0.96,6.18 -0.28,10.89 -3.52,14.74 -0.88,-0.29 0.41,-1.11 -0.31,-1.35 -0.51,-0.17 -0.97,0.08 -1.32,0.57 -1.56,2.19 -3.72,3.59 -6.03,4.9 -1.96,1.12 -3.89,1.29 -6.11,1.07 -3.78,-0.37 -7.32,-0.79 -10.84,-2.72 -3.91,-2.13 -5.51,-5.34 -6.59,-9.2 -0.3,-1.06 0.18,-2.78 -0.8,-3.1 -1.75,-0.57 -3.28,-1.9 -5.08,-1.96 C 63.85,141 57.05,136 55.14,128.92 c -1.5,-5.57 -1.63,-11.27 1.36,-16.45 1.78,-3.08 4.64,-5.33 7.92,-6.73 2.67,-1.14 3.77,-2.75 3.74,-5.82 -0.03,-4.1 -0.35,-8.27 1.17,-12.22 2.06,-5.32 6.39,-8.1 11.59,-9.45 2.66,-0.69 5.31,-1.73 8.26,-1.23 4.5,0.75 8.53,2.03 11,6.28 2.2,3.78 4.25,7.5 3.79,12.19 -0.24,2.45 1.78,3.89 4.95,3.71 4.04,-0.23 7.99,-1.13 11.93,-2.04 0.84,-0.19 1.39,-0.45 0.97,-1.31 -1.6,-3.3 -1.07,-6.95 -1.82,-10.4 -0.81,-3.7 -1.45,-7.44 -1.61,-11.28 -0.13,-3.08 -0.92,-3.49 -3.94,-3.1 -3.91,0.5 -7.69,0.02 -11.51,-0.98 -4.73,-1.24 -6.45,-5.21 -7.65,-8.98 -1.19,-3.74 -1.83,-7.92 -0.69,-11.94 1.55,-5.48 4.05,-10.12 10.23,-11.71 1.96,-0.5 3.69,-1.62 5.9,-1.61 1.9,0 3.34,-2.35 3.11,-4.34 -0.51,-4.44 -0.14,-8.84 1.55,-12.93 1.29,-3.1 4.08,-5.07 7.06,-6.57 2.09,-1.05 4.18,-1.68 6.73,-1.66 2.23,0.02 4.56,-0.75 6.98,-0.79 4.62,-0.08 7.69,2.48 10.9,5.22 2.7,2.31 2.66,5.59 3.56,8.5 0.44,1.44 0.93,2.92 1.31,4.4 0.67,2.55 2.63,3.3 6.62,2.7 4.33,-0.65 8.31,-0.05 12.25,2.02 5.08,2.67 8.24,9.76 7.24,14.65 -0.75,3.64 -0.96,7.31 -4.19,10.25 -2.45,2.23 -5.13,3.6 -8,4.77 -2.42,0.99 -5.05,1.45 -7.6,2.12 -1.49,0.39 -1.54,1.65 -1.18,2.61 1.95,5.21 1.22,10.75 2.09,16.08 0.26,1.62 0.89,3.1 0.77,4.88 -0.12,1.69 0.33,3.7 3.3,2.76 2.37,-0.75 4.98,-0.73 7.48,-1.1 0.52,-0.08 1.52,0.1 1.27,-0.82 -0.57,-2.09 0.56,-4.11 0.24,-6.05 -0.93,-5.58 1.77,-10.03 4.66,-14.11 1.57,-2.22 4.47,-3.72 7.58,-4.16 1.28,-0.18 2.65,-0.46 3.7,-1.54 0.91,-0.94 5.55,-0.25 6.4,0.8 0.14,0.17 0.31,0.42 0.5,0.45 3.57,0.51 5.26,1.27 7.82,4.89 2.52,3.56 4.65,7.38 5.12,11.94 0.16,1.53 -1.4,3.64 0.9,4.62 2,0.86 4.05,-0.16 6.08,-0.37 2.9,-0.31 5.82,-0.89 8.2,1.58 0.39,0.41 0.88,0.74 1.52,0.91 4.59,1.2 7.26,4.35 7.98,8.9 0.71,4.46 0.92,8.85 0.13,13.24 z"
   id="path10"
   style="fill:#ffffff;fill-opacity:1"
   inkscape:connector-curvature="0" />
		<g
   id="g42"
   style="fill:#ffffff;fill-opacity:1">
			<path
   class="st0"
   d="m 167.97,272.27 c -3.89,0.46 -6.56,1.79 -8.56,4.66 -2.95,4.23 -0.65,10.07 2.63,11.41 1.47,0.6 2.08,1.23 2.1,2.69 0.04,2.62 1.84,3.05 3.93,3.11 2.09,0.06 2.87,-1.64 3.93,-2.96 0.21,-2.36 -1.41,-1.54 -2.63,-1.54 -1.18,0 -2.92,1.17 -3.3,-0.87 -0.26,-1.41 -1.03,-2.11 -1.97,-2.92 -2.25,-1.94 -3.26,-6.71 -1.98,-8.82 1.39,-2.31 4.22,-2.09 6.13,-3.53 0.95,-0.71 1.73,0.69 2.59,1.04 1.97,0.8 3.47,2.34 4.62,4.23 1.26,2.06 -0.32,3.03 -1.31,4.32 -0.47,0.61 -0.35,1.5 0.17,1.95 0.62,0.54 1.11,-0.37 1.49,-0.66 2.72,-2.07 3.34,-5.4 1.18,-8.05 -2.23,-2.75 -4.64,-4.58 -9.02,-4.06 z"
   id="path12"
   style="fill:#ffffff;fill-opacity:1"
   inkscape:connector-curvature="0" />
			<path
   class="st0"
   d="m 91.51,145.52 c 0.13,1.65 1.1,2.18 2.73,2.1 1.59,-0.08 1.56,-0.79 1.64,-2.15 0.16,-2.77 -0.68,-5.44 -0.57,-8.14 0.11,-2.71 -1.84,-2.82 -3.4,-2.74 -1.32,0.07 -1.14,1.62 -0.96,2.72 0.14,0.82 0.24,1.9 -0.6,2.05 -0.92,0.17 -2.08,-0.1 -2.55,-1.31 -0.18,-0.47 -0.48,-0.9 -0.71,-1.36 -0.56,-1.12 -1.69,-1.24 -2.67,-1.22 -1.04,0.02 -0.68,1.22 -1.05,1.84 -0.77,1.28 0.03,2.58 0.04,3.86 -0.23,2.38 1.47,4.34 1.4,6.68 -0.04,1.17 1.09,1.14 1.69,1.21 0.79,0.09 1.82,0.2 2.38,-0.77 0.44,-0.76 0.13,-1.28 -0.46,-1.82 -1.43,-1.31 -0.4,-3.26 -1.16,-4.77 -0.24,-0.49 0.2,-0.7 0.7,-0.84 2.17,-0.6 3.85,0.63 3.84,2.9 -0.03,0.58 -0.33,1.18 -0.29,1.76 z"
   id="path14"
   style="fill:#ffffff;fill-opacity:1"
   inkscape:connector-curvature="0" />
			<path
   class="st0"
   d="m 158.5,269.29 c -0.22,-1.97 -0.2,-4 -1.31,-6.17 1.32,0.62 1.32,0.62 2.02,1.4 1.91,2.13 2.39,2.09 3.72,-0.38 0.24,-0.45 0.35,-0.97 0.58,-1.43 1.05,-2.17 -0.54,-2.76 -1.99,-2.66 -2.23,0.17 -4.44,0.78 -6.61,1.38 -0.95,0.26 -1.61,1.1 -1.4,2.25 0.36,2.02 0.7,4.03 0.9,6.08 0.18,1.9 1.82,1.5 3.36,1.35 1.87,-0.17 0.79,-1.28 0.73,-1.82 z"
   id="path16"
   style="fill:#ffffff;fill-opacity:1"
   inkscape:connector-curvature="0" />
			<path
   class="st0"
   d="m 99.65,133.97 c -2.27,0.31 -1.77,2.09 -1.7,3.71 0.12,2.42 0.45,4.79 0.97,7.14 0.23,1.04 0.26,2.53 1.67,2.27 1.25,-0.23 2.54,-0.93 2.08,-2.92 -0.53,-2.3 -1.15,-4.63 -0.85,-7.17 -0.8,-0.95 0.44,-3.39 -2.17,-3.03 z"
   id="path18"
   style="fill:#ffffff;fill-opacity:1"
   inkscape:connector-curvature="0" />
			<path
   class="st0"
   d="m 171.82,278.48 c -1.56,0.24 -2.09,1.57 -1.87,2.33 0.33,1.17 0.98,3.12 2.44,2.87 1.27,-0.21 1.36,-1.99 1.09,-3.45 -0.15,-0.85 0.16,-2.03 -1.66,-1.75 z"
   id="path20"
   style="fill:#ffffff;fill-opacity:1"
   inkscape:connector-curvature="0" />
			<path
   class="st0"
   d="m 176.55,289.09 c 0.01,-1.2 -1.26,-2.34 -2.29,-2.43 -1.48,-0.13 -0.48,1.42 -0.82,2.14 -0.38,0.82 -0.93,1.56 -1.41,2.34 0.74,0.51 1.49,0.73 2.44,0.56 1.52,-0.28 2.07,-1.53 2.08,-2.61 z"
   id="path22"
   style="fill:#ffffff;fill-opacity:1"
   inkscape:connector-curvature="0" />
			<path
   class="st0"
   d="m 169.36,282.76 c -1.14,0.27 -1.82,1.59 -1.62,3.04 0.14,0.96 0.4,1.86 1.55,1.66 1.76,-0.3 1.05,-1.68 1.02,-2.8 -0.43,-0.58 0.36,-2.2 -0.95,-1.9 z"
   id="path24"
   style="fill:#ffffff;fill-opacity:1"
   inkscape:connector-curvature="0" />
			<path
   class="st0"
   d="m 165.24,279.97 c -1.17,0.78 -0.83,2.11 -1.02,3.2 -0.14,0.76 0.75,0.79 1.09,0.5 0.69,-0.59 2.27,-0.69 1.73,-2.07 -0.26,-0.65 -0.63,-1.68 -1.8,-1.63 z"
   id="path26"
   style="fill:#ffffff;fill-opacity:1"
   inkscape:connector-curvature="0" />
			<path
   class="st0"
   d="m 91.08,99.37 c -0.3,0.44 -0.83,1.39 -1.3,0.35 -0.98,-2.19 -3.61,-3.69 -2.85,-6.68 1.19,-0.09 1.28,0.82 1.7,1.59 0.47,0.84 1.38,1.54 2.46,1.05 1.37,-0.63 0.28,-2.19 1.01,-3.15 0.61,-0.8 -0.32,-1.21 -0.71,-1.26 -1.92,-0.26 -4.18,-2.06 -5.7,-0.03 -1.35,1.79 -2.84,3.84 -1.88,6.62 0.79,2.3 2.2,4.01 3.79,5.7 2.22,2.36 3.66,2.12 4.85,-0.91 0.45,-1.14 0.64,-2.43 2.52,-1.74 0.41,0.15 1.91,-0.67 0.89,-1.93 -2.23,-2.73 -2.7,-2.67 -4.78,0.39 z"
   id="path28"
   style="fill:#ffffff;fill-opacity:1"
   inkscape:connector-curvature="0" />
			<path
   class="st0"
   d="m 80.19,106.34 c 1.18,-0.24 1.9,-0.76 1.5,-1.94 -0.73,-2.15 -0.19,-4.42 -0.78,-6.15 -0.18,-1.37 -0.34,-2.34 -0.43,-3.3 -0.17,-1.7 -0.98,-2.55 -2.78,-2.33 -1.83,0.22 -1.6,1.55 -1.47,2.73 0.34,2.98 0.65,5.97 1.23,8.91 0.23,1.2 0.92,2.46 2.73,2.08 z"
   id="path30"
   style="fill:#ffffff;fill-opacity:1"
   inkscape:connector-curvature="0" />
			<path
   class="st0"
   d="m 188.88,90.15 c 0.8,0.95 1.94,1.52 2.98,0.55 0.99,-0.92 0.68,-2.17 -0.17,-3.05 -2.56,-2.66 -3.91,-5.44 -1.16,-8.74 0.84,-1 -0.18,-1.57 -0.55,-1.97 -0.65,-0.7 -0.93,0.33 -1.34,0.68 -0.62,0.51 -0.26,1.63 -1.05,1.89 -0.9,-0.14 -0.95,-0.77 -1.07,-1.4 -0.28,-1.45 -1.46,-1.3 -2.45,-1.17 -1.06,0.14 -2.58,-0.23 -2.84,1.32 -0.16,0.93 0.08,1.74 1.28,2.46 2.43,1.46 2.78,3.99 1.59,6.59 -0.79,1.71 -1.36,3.52 -2.14,5.23 -0.58,1.28 -0.67,2.69 0.6,3.16 1.33,0.49 1.97,-1.18 2.15,-2.09 0.42,-2.22 1.05,-4.3 2.31,-6.17 0.6,0.88 1.15,1.86 1.86,2.71 z"
   id="path32"
   style="fill:#ffffff;fill-opacity:1"
   inkscape:connector-curvature="0" />
			<path
   class="st0"
   d="m 200.18,129.79 c -0.54,-0.3 -0.25,-1.06 -0.55,-1.42 -1.39,-1.7 -1.32,-5.35 -5.31,-4.14 1.33,-1.33 2.62,-2.71 4,-3.98 1.24,-1.13 0.27,-2.31 -0.43,-2.41 -1.59,-0.22 -3.43,-0.25 -4.2,1.82 -0.56,1.51 -0.54,1.46 -1.64,0.38 -0.75,-0.74 -1.6,-1.13 -2.73,-0.47 -0.86,0.49 -1.14,1.09 -0.79,1.9 1.25,2.9 1.39,6.07 2.22,9.07 0.31,1.13 0.55,2.34 1.92,1.72 0.72,-0.32 3.21,-0.41 1.34,-2.51 -0.52,-0.58 -0.22,-1.5 0.47,-1.82 0.8,-0.38 1.28,0.24 1.48,1.01 0.3,1.16 1.39,1.75 1.94,2.7 0.65,1.15 1.72,1.24 2.42,0.67 0.71,-0.58 1.24,-1.74 -0.14,-2.52 z"
   id="path34"
   style="fill:#ffffff;fill-opacity:1"
   inkscape:connector-curvature="0" />
			<path
   class="st0"
   d="m 205.66,117.12 c -2.34,0.61 -4.08,1.33 -3.89,4.12 0.07,0.97 -0.21,2.18 -0.79,2.93 -1.45,1.87 -0.89,3.52 0.05,5.29 1.04,1.96 2.56,2.18 3.59,0.2 0.8,-1.55 1.37,-1.18 2.34,-0.39 1.69,1.37 2.2,-0.01 2.3,-1.25 0.12,-1.5 -0.83,-2.7 -1.59,-3.98 -1.21,-2.03 -3.8,-3.74 -2.01,-6.92 z m -2.56,10.06 c 0.09,-0.79 -0.15,-1.75 0.83,-2.04 0.15,-0.04 0.59,0.29 0.58,0.43 -0.07,0.83 -0.77,1.17 -1.41,1.61 z"
   id="path36"
   style="fill:#ffffff;fill-opacity:1"
   inkscape:connector-curvature="0" />
			<path
   class="st0"
   d="m 195.98,75.75 c -4.17,1.01 -5.75,5.17 -3.33,8.62 1.23,1.76 2.53,3.49 3.61,5.33 0.59,1 1.26,0.92 2.17,0.82 1.2,-0.13 0.71,-0.91 0.77,-1.56 0.11,-1.16 0.6,-2.19 1.43,-3 0.83,-0.82 0.74,-1.78 0.46,-2.71 -0.31,-1.01 -0.71,-1.14 -1.61,-0.28 -0.72,0.69 -0.59,2.63 -1.82,2.12 -1.44,-0.59 -2.04,-2.38 -2.66,-3.81 -0.37,-0.86 -0.79,-2.27 0.61,-2.75 1.46,-0.5 1.84,0.62 1.88,1.8 0.03,1.06 0.64,1.18 1.41,0.91 0.68,-0.24 1.81,0.41 1.86,-1.19 0.05,-1.67 0.29,-3.25 -1.43,-4.28 -0.49,-0.32 -1.73,-0.41 -3.35,-0.02 z"
   id="path38"
   style="fill:#ffffff;fill-opacity:1"
   inkscape:connector-curvature="0" />
			<path
   class="st0"
   d="m 174.37,260.1 c -0.1,-0.11 -0.19,-0.21 -0.28,-0.31 l 0.09,0.1 c -1.26,-1.42 -1.21,0.21 -1.21,0.21 -0.13,0.81 -0.51,1.68 -1.13,2.46 -0.94,1.18 -2.14,2.18 -2.34,3.8 -0.14,1.09 0.25,1.96 1.31,2.36 0.99,0.37 1.69,-0.12 2.29,-0.89 2.1,-2.68 2.11,-2.68 4.96,-1.1 0.24,0.14 0.5,0.16 1.08,-0.2 -1.33,-2.33 -2.98,-4.45 -4.77,-6.43 z m -0.29,4.39 c 0.14,0.93 -0.49,0.91 -0.99,0.92 -0.27,0 -0.96,0.47 -0.76,-0.43 0.13,-0.56 0.13,-1.23 1.02,-1.21 0.61,0.02 0.71,0.36 0.73,0.72 z"
   id="path40"
   style="fill:#ffffff;fill-opacity:1"
   inkscape:connector-curvature="0" />
		</g>
	</g>
</g>
<rect
   style="fill:#a08952;fill-opacity:0"
   id="rect55"
   width="858.79871"
   height="409.58093"
   x="-465.07254"
   y="-220.6452" /></svg>